{
  "accessors": [
    {
      "bufferView": 2,
      "componentType": 5126,
      "count": 313,
      "max": [
        10.853699684143066,
        7.09060001373291,
        1.055400013923645
      ],
      "min": [
        9.340100288391113,
        6.445199966430664,
        0.698199987411499
      ],
      "type": "VEC3"
    },
    {
      "bufferView": 2,
      "byteOffset": 3756,
      "componentType": 5126,
      "count": 313,
      "max": [
        0.9945657253265381,
        0.9777734279632568,
        0.9882614016532898
      ],
      "min": [
        -0.9991593360900879,
        -0.9799606204032898,
        -0.9886993765830994
      ],
      "type": "VEC3"
    },
    {
      "bufferView": 3,
      "componentType": 5126,
      "count": 313,
      "max": [
        0.7675809860229492,
        0.957690417766571,
        0.9962617754936218,
        1.0
      ],
      "min": [
        -0.9175562262535095,
        -0.9728763103485107,
        -0.9951586723327637,
        1.0
      ],
      "type": "VEC4"
    },
    {
      "bufferView": 1,
      "componentType": 5126,
      "count": 313,
      "max": [
        0.9900000095367432,
        0.9900000095367432
      ],
      "min": [
        0.009999999776482582,
        0.02290000021457672
      ],
      "type": "VEC2"
    },
    {
      "bufferView": 0,
      "componentType": 5125,
      "count": 1632,
      "type": "SCALAR"
    },
    {
      "bufferView": 2,
      "byteOffset": 7512,
      "componentType": 5126,
      "count": 45,
      "max": [
        -5.63070011138916,
        6.3790998458862305,
        1.1454999446868896
      ],
      "min": [
        -8.339200019836426,
        4.364699840545654,
        1.0305999517440796
      ],
      "type": "VEC3"
    },
    {
      "bufferView": 2,
      "byteOffset": 8052,
      "componentType": 5126,
      "count": 45,
      "max": [
        0.31310439109802246,
        0.16189265251159668,
        1.0
      ],
      "min": [
        -0.3134046792984009,
        -0.16189265251159668,
        0.948914110660553
      ],
      "type": "VEC3"
    },
    {
      "bufferView": 1,
      "byteOffset": 2504,
      "componentType": 5126,
      "count": 45,
      "max": [
        0.7993000149726868,
        0.9675999879837036
      ],
      "min": [
        0.03999999910593033,
        0.4684999883174896
      ],
      "type": "VEC2"
    },
    {
      "bufferView": 0,
      "byteOffset": 6528,
      "componentType": 5125,
      "count": 192,
      "type": "SCALAR"
    },
    {
      "bufferView": 2,
      "byteOffset": 8592,
      "componentType": 5126,
      "count": 40,
      "max": [
        5.142199993133545,
        7.815199851989746,
        2.9647998809814453
      ],
      "min": [
        4.0518999099731445,
        5.641900062561035,
        2.6354000568389893
      ],
      "type": "VEC3"
    },
    {
      "bufferView": 2,
      "byteOffset": 9072,
      "componentType": 5126,
      "count": 40,
      "max": [
        0.991098940372467,
        0.1701032668352127,
        0.010499815456569195
      ],
      "min": [
        -0.9906516075134277,
        -0.14230498671531677,
        -0.9999780654907227
      ],
      "type": "VEC3"
    },
    {
      "bufferView": 1,
      "byteOffset": 2864,
      "componentType": 5126,
      "count": 40,
      "max": [
        0.4851999878883362,
        0.10769999772310257
      ],
      "min": [
        0.4415999948978424,
        0.03959999978542328
      ],
      "type": "VEC2"
    },
    {
      "bufferView": 0,
      "byteOffset": 7296,
      "componentType": 5125,
      "count": 168,
      "type": "SCALAR"
    },
    {
      "bufferView": 2,
      "byteOffset": 9552,
      "componentType": 5126,
      "count": 363,
      "max": [
        6.229700088500977,
        8.095399856567383,
        1.2329000234603882
      ],
      "min": [
        -2.839099884033203,
        7.545100212097168,
        0.6832000017166138
      ],
      "type": "VEC3"
    },
    {
      "bufferView": 2,
      "byteOffset": 13908,
      "componentType": 5126,
      "count": 363,
      "max": [
        1.0,
        0.9999953508377075,
        1.0
      ],
      "min": [
        -1.0,
        -0.9999953508377075,
        -1.0
      ],
      "type": "VEC3"
    },
    {
      "bufferView": 3,
      "byteOffset": 5008,
      "componentType": 5126,
      "count": 363,
      "max": [
        1.0,
        0.9999862909317017,
        0.9999902248382568,
        1.0
      ],
      "min": [
        -0.9981935620307922,
        -0.9999492168426514,
        -0.9999489784240723,
        1.0
      ],
      "type": "VEC4"
    },
    {
      "bufferView": 1,
      "byteOffset": 3184,
      "componentType": 5126,
      "count": 363,
      "max": [
        0.5051000118255615,
        0.9900000095367432
      ],
      "min": [
        0.009999999776482582,
        0.009999999776482582
      ],
      "type": "VEC2"
    },
    {
      "bufferView": 0,
      "byteOffset": 7968,
      "componentType": 5125,
      "count": 1776,
      "type": "SCALAR"
    },
    {
      "bufferView": 2,
      "byteOffset": 18264,
      "componentType": 5126,
      "count": 4,
      "max": [
        -5.599800109863281,
        6.3368000984191895,
        1.0199999809265137
      ],
      "min": [
        -8.453499794006348,
        4.683599948883057,
        1.0199999809265137
      ],
      "type": "VEC3"
    },
    {
      "bufferView": 2,
      "byteOffset": 18312,
      "componentType": 5126,
      "count": 4,
      "max": [
        0.0,
        0.0,
        1.0
      ],
      "min": [
        0.0,
        0.0,
        1.0
      ],
      "type": "VEC3"
    },
    {
      "bufferView": 1,
      "byteOffset": 6088,
      "componentType": 5126,
      "count": 4,
      "max": [
        0.9900000095367432,
        0.4101000130176544
      ],
      "min": [
        0.009999999776482582,
        0.009999999776482582
      ],
      "type": "VEC2"
    },
    {
      "bufferView": 0,
      "byteOffset": 15072,
      "componentType": 5125,
      "count": 6,
      "type": "SCALAR"
    },
    {
      "bufferView": 2,
      "byteOffset": 18360,
      "componentType": 5126,
      "count": 7239,
      "max": [
        11.6274995803833,
        11.465499877929688,
        3.22189998626709
      ],
      "min": [
        -9.57229995727539,
        -6.878799915313721,
        -0.4602999985218048
      ],
      "type": "VEC3"
    },
    {
      "bufferView": 2,
      "byteOffset": 105228,
      "componentType": 5126,
      "count": 7239,
      "max": [
        0.9999998807907104,
        0.9999990463256836,
        1.0
      ],
      "min": [
        -0.9999955892562866,
        -0.999998927116394,
        -1.0
      ],
      "type": "VEC3"
    },
    {
      "bufferView": 3,
      "byteOffset": 10816,
      "componentType": 5126,
      "count": 7239,
      "max": [
        1.0,
        0.9999997615814209,
        1.0,
        1.0
      ],
      "min": [
        -1.0,
        -1.0,
        -1.0,
        -1.0
      ],
      "type": "VEC4"
    },
    {
      "bufferView": 1,
      "byteOffset": 6120,
      "componentType": 5126,
      "count": 7239,
      "max": [
        0.991599977016449,
        0.9900000095367432
      ],
      "min": [
        0.00430000014603138,
        0.00800000037997961
      ],
      "type": "VEC2"
    },
    {
      "bufferView": 0,
      "byteOffset": 15096,
      "componentType": 5125,
      "count": 29769,
      "type": "SCALAR"
    }
  ],
  "asset": {
    "extras": {
      "author": "shedmon (https://sketchfab.com/shedmon)",
      "license": "CC-BY-4.0 (http://creativecommons.org/licenses/by/4.0/)",
      "source": "https://sketchfab.com/3d-models/tablet-8724cdb3e4e94242bcb94ad3868765dc",
      "title": "Tablet"
    },
    "generator": "Sketchfab-12.65.0",
    "version": "2.0"
  },
  "bufferViews": [
    {
      "buffer": 0,
      "byteLength": 134172,
      "name": "floatBufferViews",
      "target": 34963
    },
    {
      "buffer": 0,
      "byteLength": 64032,
      "byteOffset": 134172,
      "byteStride": 8,
      "name": "floatBufferViews",
      "target": 34962
    },
    {
      "buffer": 0,
      "byteLength": 192096,
      "byteOffset": 198204,
      "byteStride": 12,
      "name": "floatBufferViews",
      "target": 34962
    },
    {
      "buffer": 0,
      "byteLength": 126640,
      "byteOffset": 390300,
      "byteStride": 16,
      "name": "floatBufferViews",
      "target": 34962
    }
  ],
  "buffers": [
    {
      "byteLength": 516940,
      "uri": "scene.bin"
    }
  ],
  "extensionsUsed": [
    "KHR_materials_transmission"
  ],
  "images": [
    {
      "uri": "textures/Battery_baseColor.jpeg"
    },
    {
      "uri": "textures/Battery_metallicRoughness.png"
    },
    {
      "uri": "textures/Battery_normal.png"
    },
    {
      "uri": "textures/Pencil_baseColor.jpeg"
    },
    {
      "uri": "textures/Pencil_metallicRoughness.png"
    },
    {
      "uri": "textures/Pencil_normal.png"
    },
    {
      "uri": "textures/Tablet_baseColor.jpeg"
    },
    {
      "uri": "textures/Tablet_metallicRoughness.png"
    },
    {
      "uri": "textures/Tablet_normal.png"
    },
    {
      "uri": "textures/Time_baseColor.png"
    },
    {
      "uri": "textures/Time_emissive.png"
    }
  ],
  "materials": [
    {
      "doubleSided": true,
      "name": "Battery",
      "normalTexture": {
        "index": 2
      },
      "occlusionTexture": {
        "index": 1
      },
      "pbrMetallicRoughness": {
        "baseColorTexture": {
          "index": 0
        },
        "metallicRoughnessTexture": {
          "index": 1
        }
      }
    },
    {
      "alphaMode": "BLEND",
      "doubleSided": true,
      "extensions": {
        "KHR_materials_transmission": {
          "transmissionFactor": 0.8946265243902439
        }
      },
      "name": "Clock_Glass",
      "pbrMetallicRoughness": {
        "baseColorFactor": [
          0.588,
          0.588,
          0.588,
          0.25
        ],
        "metallicFactor": 0.0
      }
    },
    {
      "alphaMode": "BLEND",
      "doubleSided": true,
      "emissiveFactor": [
        1.0,
        1.0,
        1.0
      ],
      "extensions": {
        "KHR_materials_transmission": {
          "transmissionFactor": 0.6751143292682926
        }
      },
      "name": "Light_Glass",
      "pbrMetallicRoughness": {
        "baseColorFactor": [
          0.588,
          0.588,
          0.588,
          0.3248856707317073
        ],
        "metallicFactor": 0.0
      }
    },
    {
      "doubleSided": true,
      "name": "Pencil",
      "normalTexture": {
        "index": 5
      },
      "occlusionTexture": {
        "index": 4
      },
      "pbrMetallicRoughness": {
        "baseColorTexture": {
          "index": 3
        },
        "metallicRoughnessTexture": {
          "index": 4
        }
      }
    },
    {
      "doubleSided": true,
      "name": "Tablet",
      "normalTexture": {
        "index": 8
      },
      "occlusionTexture": {
        "index": 7
      },
      "pbrMetallicRoughness": {
        "baseColorTexture": {
          "index": 6
        },
        "metallicRoughnessTexture": {
          "index": 7
        }
      }
    },
    {
      "alphaMode": "BLEND",
      "doubleSided": true,
      "emissiveFactor": [
        1.0,
        1.0,
        1.0
      ],
      "emissiveTexture": {
        "index": 10
      },
      "name": "Time",
      "pbrMetallicRoughness": {
        "baseColorFactor": [
          0.5882,
          0.5882,
          0.5882,
          0.34927591463414637
        ],
        "baseColorTexture": {
          "index": 9
        },
        "metallicFactor": 0.0
      }
    }
  ],
  "meshes": [
    {
      "name": "Object_0",
      "primitives": [
        {
          "attributes": {
            "NORMAL": 1,
            "POSITION": 0,
            "TANGENT": 2,
            "TEXCOORD_0": 3
          },
          "indices": 4,
          "material": 0,
          "mode": 4
        }
      ]
    },
    {
      "name": "Object_1",
      "primitives": [
        {
          "attributes": {
            "NORMAL": 6,
            "POSITION": 5,
            "TEXCOORD_0": 7
          },
          "indices": 8,
          "material": 1,
          "mode": 4
        }
      ]
    },
    {
      "name": "Object_2",
      "primitives": [
        {
          "attributes": {
            "NORMAL": 10,
            "POSITION": 9,
            "TEXCOORD_0": 11
          },
          "indices": 12,
          "material": 2,
          "mode": 4
        }
      ]
    },
    {
      "name": "Object_3",
      "primitives": [
        {
          "attributes": {
            "NORMAL": 14,
            "POSITION": 13,
            "TANGENT": 15,
            "TEXCOORD_0": 16
          },
          "indices": 17,
          "material": 3,
          "mode": 4
        }
      ]
    },
    {
      "name": "Object_4",
      "primitives": [
        {
          "attributes": {
            "NORMAL": 19,
            "POSITION": 18,
            "TEXCOORD_0": 20
          },
          "indices": 21,
          "material": 5,
          "mode": 4
        }
      ]
    },
    {
      "name": "Object_5",
      "primitives": [
        {
          "attributes": {
            "NORMAL": 23,
            "POSITION": 22,
            "TANGENT": 24,
            "TEXCOORD_0": 25
          },
          "indices": 26,
          "material": 4,
          "mode": 4
        }
      ]
    }
  ],
  "nodes": [
    {
      "children": [
        1
      ],
      "matrix": [
        0.027975991368293762,
        0.0,
        0.0,
        0.0,
        0.0,
        6.2119179507588745e-18,
        -0.027975991368293762,
        0.0,
        0.0,
        0.027975991368293762,
        6.2119179507588745e-18,
        0.0,
        0.0,
        0.0,
        0.0,
        1.0
      ],
      "name": "Sketchfab_model"
    },
    {
      "children": [
        2,
        3,
        4,
        5,
        6,
        7
      ],
      "name": "Tablet.obj.cleaner.materialmerger.gles"
    },
    {
      "mesh": 0,
      "name": "Object_2"
    },
    {
      "mesh": 1,
      "name": "Object_3"
    },
    {
      "mesh": 2,
      "name": "Object_4"
    },
    {
      "mesh": 3,
      "name": "Object_5"
    },
    {
      "mesh": 4,
      "name": "Object_6"
    },
    {
      "mesh": 5,
      "name": "Object_7"
    }
  ],
  "samplers": [
    {
      "magFilter": 9729,
      "minFilter": 9987,
      "wrapS": 10497,
      "wrapT": 10497
    }
  ],
  "scene": 0,
  "scenes": [
    {
      "name": "Sketchfab_Scene",
      "nodes": [
        0
      ]
    }
  ],
  "textures": [
    {
      "sampler": 0,
      "source": 0
    },
    {
      "sampler": 0,
      "source": 1
    },
    {
      "sampler": 0,
      "source": 2
    },
    {
      "sampler": 0,
      "source": 3
    },
    {
      "sampler": 0,
      "source": 4
    },
    {
      "sampler": 0,
      "source": 5
    },
    {
      "sampler": 0,
      "source": 6
    },
    {
      "sampler": 0,
      "source": 7
    },
    {
      "sampler": 0,
      "source": 8
    },
    {
      "sampler": 0,
      "source": 9
    },
    {
      "sampler": 0,
      "source": 10
    }
  ]
}
