{
  "accessors": [
    {
      "bufferView": 2,
      "componentType": 5126,
      "count": 528,
      "max": [
        20.62322235107422,
        20.888294219970703,
        27.508195877075195
      ],
      "min": [
        -21.081884384155273,
        -21.177064895629883,
        -27.660133361816406
      ],
      "type": "VEC3"
    },
    {
      "bufferView": 2,
      "byteOffset": 6336,
      "componentType": 5126,
      "count": 528,
      "max": [
        0.9908421039581299,
        0.99919593334198,
        0.9999347925186157
      ],
      "min": [
        -0.9910449981689453,
        -0.9993298649787903,
        -0.99993497133255
      ],
      "type": "VEC3"
    },
    {
      "bufferView": 1,
      "componentType": 5126,
      "count": 528,
      "max": [
        0.9892107248306274,
        0.9963465929031372
      ],
      "min": [
        0.0037907324731349945,
        0.527423620223999
      ],
      "type": "VEC2"
    },
    {
      "bufferView": 0,
      "componentType": 5125,
      "count": 1224,
      "type": "SCALAR"
    },
    {
      "bufferView": 2,
      "byteOffset": 12672,
      "componentType": 5126,
      "count": 24,
      "max": [
        46.84999465942383,
        46.37192916870117,
        4.2853851318359375
      ],
      "min": [
        -46.84999465942383,
        -46.37192916870117,
        0.0
      ],
      "type": "VEC3"
    },
    {
      "bufferView": 2,
      "byteOffset": 12960,
      "componentType": 5126,
      "count": 24,
      "max": [
        1.0,
        1.0,
        1.0
      ],
      "min": [
        -1.0,
        -1.0,
        -1.0
      ],
      "type": "VEC3"
    },
    {
      "bufferView": 1,
      "byteOffset": 4224,
      "componentType": 5126,
      "count": 24,
      "max": [
        0.23434531688690186,
        0.23189926147460938
      ],
      "min": [
        0.015385985374450684,
        0.014987468719482422
      ],
      "type": "VEC2"
    },
    {
      "bufferView": 0,
      "byteOffset": 4896,
      "componentType": 5125,
      "count": 36,
      "type": "SCALAR"
    },
    {
      "bufferView": 2,
      "byteOffset": 13248,
      "componentType": 5126,
      "count": 347,
      "max": [
        101.4772720336914,
        19.326282501220703,
        115.43067169189453
      ],
      "min": [
        -20.32085609436035,
        -19.326282501220703,
        -4.778973579406738
      ],
      "type": "VEC3"
    },
    {
      "bufferView": 2,
      "byteOffset": 17412,
      "componentType": 5126,
      "count": 347,
      "max": [
        1.0,
        1.0,
        1.0
      ],
      "min": [
        -1.0,
        -1.0,
        -1.0
      ],
      "type": "VEC3"
    },
    {
      "bufferView": 1,
      "byteOffset": 4416,
      "componentType": 5126,
      "count": 347,
      "max": [
        0.9836316704750061,
        0.5858069658279419
      ],
      "min": [
        0.007668228819966316,
        0.00953263696283102
      ],
      "type": "VEC2"
    },
    {
      "bufferView": 0,
      "byteOffset": 5040,
      "componentType": 5125,
      "count": 1056,
      "type": "SCALAR"
    },
    {
      "bufferView": 2,
      "byteOffset": 21576,
      "componentType": 5126,
      "count": 387,
      "max": [
        45.95046615600586,
        45.843467712402344,
        1.9611749649047852
      ],
      "min": [
        -45.95047378540039,
        -45.84346008300781,
        -122.83865356445313
      ],
      "type": "VEC3"
    },
    {
      "bufferView": 2,
      "byteOffset": 26220,
      "componentType": 5126,
      "count": 387,
      "max": [
        0.9996150732040405,
        0.9129840731620789,
        1.0
      ],
      "min": [
        -0.9999731779098511,
        -0.8992437124252319,
        -1.0
      ],
      "type": "VEC3"
    },
    {
      "bufferView": 1,
      "byteOffset": 7192,
      "componentType": 5126,
      "count": 387,
      "max": [
        0.9898707270622253,
        0.7200194001197815
      ],
      "min": [
        0.22203727066516876,
        0.016277482733130455
      ],
      "type": "VEC2"
    },
    {
      "bufferView": 0,
      "byteOffset": 9264,
      "componentType": 5125,
      "count": 960,
      "type": "SCALAR"
    }
  ],
  "asset": {
    "extras": {
      "author": "Jake_26_26 (https://sketchfab.com/Jake_26_26)",
      "license": "CC-BY-4.0 (http://creativecommons.org/licenses/by/4.0/)",
      "source": "https://sketchfab.com/3d-models/chemistry-set-fd8e13456e2b442cba633b04f07b03b9",
      "title": "Chemistry Set"
    },
    "generator": "Sketchfab-12.66.0",
    "version": "2.0"
  },
  "bufferViews": [
    {
      "buffer": 0,
      "byteLength": 13104,
      "name": "floatBufferViews",
      "target": 34963
    },
    {
      "buffer": 0,
      "byteLength": 10288,
      "byteOffset": 13104,
      "byteStride": 8,
      "name": "floatBufferViews",
      "target": 34962
    },
    {
      "buffer": 0,
      "byteLength": 30864,
      "byteOffset": 23392,
      "byteStride": 12,
      "name": "floatBufferViews",
      "target": 34962
    }
  ],
  "buffers": [
    {
      "byteLength": 54256,
      "uri": "scene.bin"
    }
  ],
  "extensionsUsed": [
    "KHR_materials_unlit"
  ],
  "images": [
    {
      "uri": "textures/Material_3_baseColor.png"
    }
  ],
  "materials": [
    {
      "alphaMode": "BLEND",
      "doubleSided": true,
      "extensions": {
        "KHR_materials_unlit": {}
      },
      "name": "Material_3",
      "pbrMetallicRoughness": {
        "baseColorTexture": {
          "index": 0
        },
        "metallicFactor": 0.0
      }
    }
  ],
  "meshes": [
    {
      "name": "flask_with_bright_liquid_Material #3_0",
      "primitives": [
        {
          "attributes": {
            "NORMAL": 1,
            "POSITION": 0,
            "TEXCOORD_0": 2
          },
          "indices": 3,
          "material": 0,
          "mode": 4
        }
      ]
    },
    {
      "name": "heat_mat_Material #3_0",
      "primitives": [
        {
          "attributes": {
            "NORMAL": 5,
            "POSITION": 4,
            "TEXCOORD_0": 6
          },
          "indices": 7,
          "material": 0,
          "mode": 4
        }
      ]
    },
    {
      "name": "lit_bunsen_burner_Material #3_0",
      "primitives": [
        {
          "attributes": {
            "NORMAL": 9,
            "POSITION": 8,
            "TEXCOORD_0": 10
          },
          "indices": 11,
          "material": 0,
          "mode": 4
        }
      ]
    },
    {
      "name": "tripod_with_wire_gauze_Material #3_0",
      "primitives": [
        {
          "attributes": {
            "NORMAL": 13,
            "POSITION": 12,
            "TEXCOORD_0": 14
          },
          "indices": 15,
          "material": 0,
          "mode": 4
        }
      ]
    }
  ],
  "nodes": [
    {
      "children": [
        1
      ],
      "matrix": [
        1.0,
        0.0,
        0.0,
        0.0,
        0.0,
        2.220446049250313e-16,
        -1.0,
        0.0,
        0.0,
        1.0,
        2.220446049250313e-16,
        0.0,
        0.0,
        0.0,
        0.0,
        1.0
      ],
      "name": "Sketchfab_model"
    },
    {
      "children": [
        2
      ],
      "matrix": [
        1.0,
        0.0,
        0.0,
        0.0,
        0.0,
        0.0,
        1.0,
        0.0,
        0.0,
        -1.0,
        0.0,
        0.0,
        0.0,
        0.0,
        0.0,
        1.0
      ],
      "name": "0419022acb43403093d591d8a297634d.fbx"
    },
    {
      "children": [
        3
      ],
      "name": "RootNode"
    },
    {
      "children": [
        4,
        6,
        8,
        10
      ],
      "matrix": [
        1.0,
        0.0,
        0.0,
        0.0,
        0.0,
        2.220446049250313e-16,
        -1.0,
        0.0,
        0.0,
        1.0,
        2.220446049250313e-16,
        0.0,
        28.017316818237305,
        91.844970703125,
        -2.7326393127441406,
        1.0
      ],
      "name": "SM_ChemSet"
    },
    {
      "children": [
        5
      ],
      "matrix": [
        0.9999999999999847,
        1.7484555314694907e-07,
        1.4693679385278597e-39,
        0.0,
        -1.7484555314694907e-07,
        0.9999999999999847,
        -3.8893845486632136e-62,
        0.0,
        -1.4693679385278372e-39,
        -2.5691244998829583e-46,
        1.0,
        0.0,
        -26.825403213500977,
        2.720768928527832,
        64.25520324707031,
        1.0
      ],
      "name": "flask_with_bright_liquid"
    },
    {
      "mesh": 0,
      "name": "flask_with_bright_liquid_Material #3_0"
    },
    {
      "children": [
        7
      ],
      "matrix": [
        1.0,
        0.0,
        0.0,
        0.0,
        0.0,
        1.0,
        0.0,
        0.0,
        0.0,
        0.0,
        1.0,
        0.0,
        -27.850934982299805,
        -2.1619701385498047,
        -91.51396179199219,
        1.0
      ],
      "name": "heat_mat"
    },
    {
      "mesh": 1,
      "name": "heat_mat_Material #3_0"
    },
    {
      "children": [
        9
      ],
      "matrix": [
        1.0,
        0.0,
        0.0,
        0.0,
        0.0,
        1.0,
        0.0,
        0.0,
        0.0,
        0.0,
        1.0,
        0.0,
        -26.77634048461914,
        -1.5790464878082275,
        -86.98442840576172,
        1.0
      ],
      "name": "lit_bunsen_burner"
    },
    {
      "mesh": 2,
      "name": "lit_bunsen_burner_Material #3_0"
    },
    {
      "children": [
        11
      ],
      "matrix": [
        0.9999999999999847,
        1.7484555314694907e-07,
        1.4693679385278597e-39,
        0.0,
        -1.7484555314694907e-07,
        0.9999999999999847,
        -3.8893845486632136e-62,
        0.0,
        -1.4693679385278372e-39,
        -2.5691244998829583e-46,
        1.0,
        0.0,
        -26.873584747314453,
        2.690432548522949,
        35.59233093261719,
        1.0
      ],
      "name": "tripod_with_wire_gauze"
    },
    {
      "mesh": 3,
      "name": "tripod_with_wire_gauze_Material #3_0"
    }
  ],
  "samplers": [
    {
      "magFilter": 9729,
      "minFilter": 9987,
      "wrapS": 10497,
      "wrapT": 10497
    }
  ],
  "scene": 0,
  "scenes": [
    {
      "name": "Sketchfab_Scene",
      "nodes": [
        0
      ]
    }
  ],
  "textures": [
    {
      "sampler": 0,
      "source": 0
    }
  ]
}
