{
  "accessors": [
    {
      "bufferView": 2,
      "componentType": 5126,
      "count": 446,
      "max": [
        60.0,
        180.0,
        23.07657241821289
      ],
      "min": [
        -60.0,
        0.0,
        -22.5
      ],
      "type": "VEC3"
    },
    {
      "bufferView": 2,
      "byteOffset": 5352,
      "componentType": 5126,
      "count": 446,
      "max": [
        1.0,
        1.0,
        1.0
      ],
      "min": [
        -1.0,
        -1.0,
        -1.0
      ],
      "type": "VEC3"
    },
    {
      "bufferView": 3,
      "componentType": 5126,
      "count": 446,
      "max": [
        1.0,
        1.0,
        1.0,
        1.0
      ],
      "min": [
        -0.9999998211860657,
        -1.0,
        -1.0,
        1.0
      ],
      "type": "VEC4"
    },
    {
      "bufferView": 1,
      "componentType": 5126,
      "count": 446,
      "max": [
        0.9934352040290833,
        0.9734595417976379
      ],
      "min": [
        0.0039682537317276,
        0.0038783252239227295
      ],
      "type": "VEC2"
    },
    {
      "bufferView": 1,
      "byteOffset": 3568,
      "componentType": 5126,
      "count": 446,
      "max": [
        0.9921259880065918,
        0.9637112617492676
      ],
      "min": [
        0.007874016650021076,
        0.0076485020108520985
      ],
      "type": "VEC2"
    },
    {
      "bufferView": 0,
      "componentType": 5125,
      "count": 936,
      "type": "SCALAR"
    },
    {
      "bufferView": 2,
      "byteOffset": 10704,
      "componentType": 5126,
      "count": 8,
      "max": [
        51.854373931884766,
        -3.52386474609375,
        -0.7261844873428345
      ],
      "min": [
        6.335243225097656,
        -157.36073303222656,
        -1.8193851709365845
      ],
      "type": "VEC3"
    },
    {
      "bufferView": 2,
      "byteOffset": 10800,
      "componentType": 5126,
      "count": 8,
      "max": [
        0.0,
        0.0,
        1.0
      ],
      "min": [
        -2.8339398383536718e-08,
        0.0,
        -1.0
      ],
      "type": "VEC3"
    },
    {
      "bufferView": 1,
      "byteOffset": 7136,
      "componentType": 5126,
      "count": 8,
      "max": [
        0.9921258091926575,
        0.792583167552948
      ],
      "min": [
        0.5096843242645264,
        0.006300747860223055
      ],
      "type": "VEC2"
    },
    {
      "bufferView": 1,
      "byteOffset": 7200,
      "componentType": 5126,
      "count": 8,
      "max": [
        0.9921258091926575,
        0.792583167552948
      ],
      "min": [
        0.5096843242645264,
        0.006300747860223055
      ],
      "type": "VEC2"
    },
    {
      "bufferView": 1,
      "byteOffset": 7264,
      "componentType": 5126,
      "count": 8,
      "max": [
        0.6133056879043579,
        0.37353742122650146
      ],
      "min": [
        0.3811730742454529,
        0.009677469730377197
      ],
      "type": "VEC2"
    },
    {
      "bufferView": 0,
      "byteOffset": 3744,
      "componentType": 5125,
      "count": 12,
      "type": "SCALAR"
    },
    {
      "bufferView": 2,
      "byteOffset": 10896,
      "componentType": 5126,
      "count": 174,
      "max": [
        57.53843307495117,
        4.27838134765625,
        2.039165735244751
      ],
      "min": [
        3.814697265625e-06,
        -163.3726806640625,
        -2.565326452255249
      ],
      "type": "VEC3"
    },
    {
      "bufferView": 2,
      "byteOffset": 12984,
      "componentType": 5126,
      "count": 174,
      "max": [
        1.0,
        1.0,
        1.0
      ],
      "min": [
        -1.0,
        -1.0,
        -1.0
      ],
      "type": "VEC3"
    },
    {
      "bufferView": 3,
      "byteOffset": 7136,
      "componentType": 5126,
      "count": 174,
      "max": [
        1.0,
        1.0,
        0.023083649575710297,
        1.0
      ],
      "min": [
        -1.0,
        -0.00036126270424574614,
        -1.0,
        1.0
      ],
      "type": "VEC4"
    },
    {
      "bufferView": 1,
      "byteOffset": 7328,
      "componentType": 5126,
      "count": 174,
      "max": [
        0.9960317611694336,
        0.945776104927063
      ],
      "min": [
        0.5372602939605713,
        0.3750618100166321
      ],
      "type": "VEC2"
    },
    {
      "bufferView": 1,
      "byteOffset": 8720,
      "componentType": 5126,
      "count": 174,
      "max": [
        0.9296509623527527,
        0.9921259880065918
      ],
      "min": [
        0.0073781609535217285,
        0.007874011993408203
      ],
      "type": "VEC2"
    },
    {
      "bufferView": 0,
      "byteOffset": 3792,
      "componentType": 5125,
      "count": 384,
      "type": "SCALAR"
    },
    {
      "bufferView": 2,
      "byteOffset": 15072,
      "componentType": 5126,
      "count": 8,
      "max": [
        -6.335243225097656,
        -3.52386474609375,
        -0.7261505126953125
      ],
      "min": [
        -51.854373931884766,
        -157.36073303222656,
        -1.8193511962890625
      ],
      "type": "VEC3"
    },
    {
      "bufferView": 2,
      "byteOffset": 15168,
      "componentType": 5126,
      "count": 8,
      "max": [
        0.0,
        0.0,
        1.0
      ],
      "min": [
        -3.786766455959878e-08,
        0.0,
        -1.0
      ],
      "type": "VEC3"
    },
    {
      "bufferView": 1,
      "byteOffset": 10112,
      "componentType": 5126,
      "count": 8,
      "max": [
        0.4903130531311035,
        0.7938941121101379
      ],
      "min": [
        0.007874015718698502,
        0.00734835397452116
      ],
      "type": "VEC2"
    },
    {
      "bufferView": 1,
      "byteOffset": 10176,
      "componentType": 5126,
      "count": 8,
      "max": [
        0.4903130531311035,
        0.7938941121101379
      ],
      "min": [
        0.007874015718698502,
        0.00734835397452116
      ],
      "type": "VEC2"
    },
    {
      "bufferView": 1,
      "byteOffset": 10240,
      "componentType": 5126,
      "count": 8,
      "max": [
        0.6138373017311096,
        0.37323468923568726
      ],
      "min": [
        0.3814994692802429,
        0.00927561055868864
      ],
      "type": "VEC2"
    },
    {
      "bufferView": 0,
      "byteOffset": 5328,
      "componentType": 5125,
      "count": 12,
      "type": "SCALAR"
    },
    {
      "bufferView": 2,
      "byteOffset": 15264,
      "componentType": 5126,
      "count": 174,
      "max": [
        -3.814697265625e-06,
        4.27838134765625,
        2.0391693115234375
      ],
      "min": [
        -57.53843307495117,
        -163.3726806640625,
        -2.5653228759765625
      ],
      "type": "VEC3"
    },
    {
      "bufferView": 2,
      "byteOffset": 17352,
      "componentType": 5126,
      "count": 174,
      "max": [
        1.0,
        1.0,
        1.0
      ],
      "min": [
        -1.0,
        -1.0,
        -1.0
      ],
      "type": "VEC3"
    },
    {
      "bufferView": 3,
      "byteOffset": 9920,
      "componentType": 5126,
      "count": 174,
      "max": [
        1.0,
        1.0,
        1.0,
        1.0
      ],
      "min": [
        -1.0,
        -0.006226182449609041,
        -0.01392773911356926,
        1.0
      ],
      "type": "VEC4"
    },
    {
      "bufferView": 1,
      "byteOffset": 10304,
      "componentType": 5126,
      "count": 174,
      "max": [
        0.996031641960144,
        0.9478783011436462
      ],
      "min": [
        0.20712712407112122,
        0.37469732761383057
      ],
      "type": "VEC2"
    },
    {
      "bufferView": 1,
      "byteOffset": 11696,
      "componentType": 5126,
      "count": 174,
      "max": [
        0.9304521679878235,
        0.992125928401947
      ],
      "min": [
        0.007384541444480419,
        0.007874016650021076
      ],
      "type": "VEC2"
    },
    {
      "bufferView": 0,
      "byteOffset": 5376,
      "componentType": 5125,
      "count": 384,
      "type": "SCALAR"
    },
    {
      "bufferView": 4,
      "componentType": 5126,
      "count": 75,
      "max": [
        6.083333492279053
      ],
      "min": [
        0.0416666679084301
      ],
      "type": "SCALAR"
    },
    {
      "bufferView": 5,
      "componentType": 5126,
      "count": 75,
      "max": [
        0.0,
        0.0,
        0.0,
        1.0
      ],
      "min": [
        -8.658584530303742e-17,
        -0.8660253882408142,
        -8.658584530303742e-17,
        0.5
      ],
      "type": "VEC4"
    },
    {
      "bufferView": 4,
      "byteOffset": 300,
      "componentType": 5126,
      "count": 77,
      "max": [
        3.75
      ],
      "min": [
        0.0416666679084301
      ],
      "type": "SCALAR"
    },
    {
      "bufferView": 5,
      "byteOffset": 1200,
      "componentType": 5126,
      "count": 77,
      "max": [
        2.2412592700383518e-17,
        0.8660253882408142,
        2.2412592700383518e-17,
        1.0
      ],
      "min": [
        0.0,
        0.0,
        0.0,
        0.5
      ],
      "type": "VEC4"
    }
  ],
  "animations": [
    {
      "channels": [
        {
          "sampler": 0,
          "target": {
            "node": 6,
            "path": "rotation"
          }
        },
        {
          "sampler": 1,
          "target": {
            "node": 9,
            "path": "rotation"
          }
        }
      ],
      "name": "Open - Close",
      "samplers": [
        {
          "input": 30,
          "interpolation": "LINEAR",
          "output": 31
        },
        {
          "input": 32,
          "interpolation": "LINEAR",
          "output": 33
        }
      ]
    }
  ],
  "asset": {
    "extras": {
      "author": "Naked Singularity (https://sketchfab.com/nakedsingularity)",
      "license": "CC-BY-4.0 (http://creativecommons.org/licenses/by/4.0/)",
      "source": "https://sketchfab.com/3d-models/laboratory-cabinet-storage-pbr-low-poly-free-6c5d3bde09dd4f55ad973d8429441190",
      "title": "Laboratory Cabinet Storage | PBR Low poly | FREE"
    },
    "generator": "Sketchfab-12.68.0",
    "version": "2.0"
  },
  "bufferViews": [
    {
      "buffer": 0,
      "byteLength": 6912,
      "name": "floatBufferViews",
      "target": 34963
    },
    {
      "buffer": 0,
      "byteLength": 13088,
      "byteOffset": 6912,
      "byteStride": 8,
      "name": "floatBufferViews",
      "target": 34962
    },
    {
      "buffer": 0,
      "byteLength": 19440,
      "byteOffset": 20000,
      "byteStride": 12,
      "name": "floatBufferViews",
      "target": 34962
    },
    {
      "buffer": 0,
      "byteLength": 12704,
      "byteOffset": 39440,
      "byteStride": 16,
      "name": "floatBufferViews",
      "target": 34962
    },
    {
      "buffer": 0,
      "byteLength": 608,
      "byteOffset": 52144,
      "name": "floatBufferViews"
    },
    {
      "buffer": 0,
      "byteLength": 2432,
      "byteOffset": 52752,
      "byteStride": 16,
      "name": "floatBufferViews"
    }
  ],
  "buffers": [
    {
      "byteLength": 55184,
      "uri": "scene.bin"
    }
  ],
  "images": [
    {
      "uri": "textures/metal_baseColor.jpeg"
    },
    {
      "uri": "textures/metal_metallicRoughness.png"
    },
    {
      "uri": "textures/metal_normal.jpeg"
    },
    {
      "uri": "textures/glass_baseColor.png"
    },
    {
      "uri": "textures/glass_metallicRoughness.png"
    }
  ],
  "materials": [
    {
      "doubleSided": true,
      "name": "metal",
      "normalTexture": {
        "index": 2
      },
      "occlusionTexture": {
        "index": 1
      },
      "pbrMetallicRoughness": {
        "baseColorTexture": {
          "index": 0
        },
        "metallicRoughnessTexture": {
          "index": 1
        },
        "roughnessFactor": 0.5
      }
    },
    {
      "alphaMode": "BLEND",
      "doubleSided": true,
      "name": "glass",
      "occlusionTexture": {
        "index": 4
      },
      "pbrMetallicRoughness": {
        "baseColorTexture": {
          "index": 3
        },
        "metallicRoughnessTexture": {
          "index": 4
        }
      }
    }
  ],
  "meshes": [
    {
      "name": "lab_cabinet_body_NakedSingularity_metal_0",
      "primitives": [
        {
          "attributes": {
            "NORMAL": 1,
            "POSITION": 0,
            "TANGENT": 2,
            "TEXCOORD_0": 3,
            "TEXCOORD_1": 4
          },
          "indices": 5,
          "material": 0,
          "mode": 4
        }
      ]
    },
    {
      "name": "lab_cabinet_r_door_NakedSingularity_glass_0",
      "primitives": [
        {
          "attributes": {
            "NORMAL": 7,
            "POSITION": 6,
            "TEXCOORD_0": 8,
            "TEXCOORD_1": 9,
            "TEXCOORD_2": 10
          },
          "indices": 11,
          "material": 1,
          "mode": 4
        }
      ]
    },
    {
      "name": "lab_cabinet_r_door_NakedSingularity_metal_0",
      "primitives": [
        {
          "attributes": {
            "NORMAL": 13,
            "POSITION": 12,
            "TANGENT": 14,
            "TEXCOORD_0": 15,
            "TEXCOORD_1": 16
          },
          "indices": 17,
          "material": 0,
          "mode": 4
        }
      ]
    },
    {
      "name": "lab_cabinet_l_door_NakedSingularity_glass_0",
      "primitives": [
        {
          "attributes": {
            "NORMAL": 19,
            "POSITION": 18,
            "TEXCOORD_0": 20,
            "TEXCOORD_1": 21,
            "TEXCOORD_2": 22
          },
          "indices": 23,
          "material": 1,
          "mode": 4
        }
      ]
    },
    {
      "name": "lab_cabinet_l_door_NakedSingularity_metal_0",
      "primitives": [
        {
          "attributes": {
            "NORMAL": 25,
            "POSITION": 24,
            "TANGENT": 26,
            "TEXCOORD_0": 27,
            "TEXCOORD_1": 28
          },
          "indices": 29,
          "material": 0,
          "mode": 4
        }
      ]
    }
  ],
  "nodes": [
    {
      "children": [
        1
      ],
      "matrix": [
        1.0,
        0.0,
        0.0,
        0.0,
        0.0,
        2.220446049250313e-16,
        -1.0,
        0.0,
        0.0,
        1.0,
        2.220446049250313e-16,
        0.0,
        0.0,
        0.0,
        0.0,
        1.0
      ],
      "name": "Sketchfab_model"
    },
    {
      "children": [
        2
      ],
      "matrix": [
        0.009999999776482582,
        0.0,
        0.0,
        0.0,
        0.0,
        0.0,
        0.009999999776482582,
        0.0,
        0.0,
        -0.009999999776482582,
        0.0,
        0.0,
        0.0,
        0.0,
        0.0,
        1.0
      ],
      "name": "Laboratory_cabinet_NakedSingularity.fbx"
    },
    {
      "children": [
        3
      ],
      "name": "Object_2"
    },
    {
      "children": [
        4,
        6,
        9
      ],
      "name": "RootNode"
    },
    {
      "children": [
        5
      ],
      "name": "lab_cabinet_body_NakedSingularity"
    },
    {
      "mesh": 0,
      "name": "lab_cabinet_body_NakedSingularity_metal_0"
    },
    {
      "children": [
        7,
        8
      ],
      "name": "lab_cabinet_r_door_NakedSingularity",
      "rotation": [
        -8.364493367528069e-17,
        -0.8660253882408142,
        -8.364493367528069e-17,
        0.5
      ],
      "translation": [
        -57.692142486572266,
        173.59765625,
        22.500003814697266
      ]
    },
    {
      "mesh": 1,
      "name": "lab_cabinet_r_door_NakedSingularity_glass_0"
    },
    {
      "mesh": 2,
      "name": "lab_cabinet_r_door_NakedSingularity_metal_0"
    },
    {
      "children": [
        10,
        11
      ],
      "name": "lab_cabinet_l_door_NakedSingularity",
      "translation": [
        57.692142486572266,
        173.59765625,
        22.5
      ]
    },
    {
      "mesh": 3,
      "name": "lab_cabinet_l_door_NakedSingularity_glass_0"
    },
    {
      "mesh": 4,
      "name": "lab_cabinet_l_door_NakedSingularity_metal_0"
    }
  ],
  "samplers": [
    {
      "magFilter": 9729,
      "minFilter": 9987,
      "wrapS": 10497,
      "wrapT": 10497
    }
  ],
  "scene": 0,
  "scenes": [
    {
      "name": "Sketchfab_Scene",
      "nodes": [
        0
      ]
    }
  ],
  "textures": [
    {
      "sampler": 0,
      "source": 0
    },
    {
      "sampler": 0,
      "source": 1
    },
    {
      "sampler": 0,
      "source": 2
    },
    {
      "sampler": 0,
      "source": 3
    },
    {
      "sampler": 0,
      "source": 4
    }
  ]
}
